<svg xmlns="http://www.w3.org/2000/svg" width="256" height="256" viewBox="0 0 256 256">
  <defs>
    <linearGradient id="cursor-face" x1="65" y1="35" x2="180" y2="204" gradientUnits="userSpaceOnUse">
      <stop stop-color="#c1f1ff"/><stop offset=".45" stop-color="#55b9f2"/><stop offset="1" stop-color="#3379d8"/>
    </linearGradient>
    <linearGradient id="cursor-side" x1="111" y1="82" x2="191" y2="218" gradientUnits="userSpaceOnUse">
      <stop stop-color="#358ed8"/><stop offset="1" stop-color="#214993"/>
    </linearGradient>
    <filter id="cursor-shadow" x="-30%" y="-25%" width="170%" height="165%">
      <feDropShadow dx="0" dy="5" stdDeviation="4" flood-color="#214993" flood-opacity=".16"/>
    </filter>
  </defs>
  <g stroke-linejoin="round" filter="url(#cursor-shadow)">
    <path d="M68 39Q64 36 64 43L72 182Q72 189 78 185L112 157L141 215Q144 221 150 218L174 205Q179 202 176 196L150 145L198 145Q206 145 200 139Z" fill="url(#cursor-side)"/>
    <path d="M60 29Q56 26 56 33L64 172Q64 179 70 175L104 147L133 205Q136 211 142 208L166 195Q171 192 168 186L142 135L190 135Q198 135 192 129Z" fill="url(#cursor-face)"/>
    <path d="M62 36L187 129L137 129L163 188" fill="none" stroke="#e0f7ff" stroke-opacity=".65" stroke-width="3" stroke-linecap="round"/>
    <path d="M64 44L71 162L103 137" fill="none" stroke="#d5f5ff" stroke-opacity=".35" stroke-width="3" stroke-linecap="round"/>
  </g>
</svg>
