<svg xmlns="http://www.w3.org/2000/svg" width="256" height="256" viewBox="0 0 256 256">
  <defs>
    <linearGradient id="face" x1="65" y1="44" x2="190" y2="211" gradientUnits="userSpaceOnUse"><stop stop-color="#f1f7ff"/><stop offset=".5" stop-color="#d5e4fa"/><stop offset="1" stop-color="#9bb6e4"/></linearGradient>
    <linearGradient id="rim" x1="80" y1="83" x2="176" y2="223" gradientUnits="userSpaceOnUse"><stop stop-color="#8fa9d6"/><stop offset="1" stop-color="#627cb2"/></linearGradient>
    <radialGradient id="coral" cx=".3" cy=".2" r=".9"><stop stop-color="#ffb9b7"/><stop offset=".55" stop-color="#f76a80"/><stop offset="1" stop-color="#c84568"/></radialGradient>
    <radialGradient id="yellow" cx=".3" cy=".2" r=".9"><stop stop-color="#fff0ac"/><stop offset=".55" stop-color="#ffc95e"/><stop offset="1" stop-color="#e69a39"/></radialGradient>
    <radialGradient id="mint" cx=".3" cy=".2" r=".9"><stop stop-color="#b9f8d7"/><stop offset=".55" stop-color="#49cd9b"/><stop offset="1" stop-color="#229776"/></radialGradient>
    <radialGradient id="blue" cx=".3" cy=".2" r=".9"><stop stop-color="#b5ddff"/><stop offset=".55" stop-color="#669af3"/><stop offset="1" stop-color="#4863ca"/></radialGradient>
    <filter id="shadow" x="-30%" y="-30%" width="165%" height="175%"><feDropShadow dx="0" dy="5" stdDeviation="4" flood-color="#324d81" flood-opacity=".17"/></filter>
  </defs>
  <g filter="url(#shadow)">
    <path d="M130 38C77 35 35 68 33 120C30 173 69 217 123 221C151 223 162 209 151 192C141 175 144 163 161 162L185 162C211 162 225 146 222 119C218 72 180 42 130 38ZM178 99C188 99 193 107 192 116C191 126 184 132 176 130C167 129 164 121 166 112C167 105 171 99 178 99Z" fill="url(#rim)" fill-rule="evenodd"/>
    <path d="M130 29C77 26 35 59 33 111C30 164 69 208 123 212C151 214 162 200 151 183C141 166 144 154 161 153L185 153C211 153 225 137 222 110C218 63 180 33 130 29ZM178 90C188 90 193 98 192 107C191 117 184 123 176 121C167 120 164 112 166 103C167 96 171 90 178 90Z" fill="url(#face)" fill-rule="evenodd"/>
    <path d="M42 109C44 64 82 35 130 36C169 39 196 56 208 79" fill="none" stroke="white" stroke-opacity=".7" stroke-width="3" stroke-linecap="round"/>
    <circle cx="119" cy="62" r="16" fill="url(#coral)"/>
    <circle cx="73" cy="86" r="17" fill="url(#yellow)"/>
    <circle cx="64" cy="135" r="17" fill="url(#mint)"/>
    <circle cx="98" cy="176" r="17" fill="url(#blue)"/>
  </g>
</svg>
