<svg xmlns="http://www.w3.org/2000/svg" width="256" height="256" viewBox="0 0 256 256"><defs>
    <linearGradient id="verify-face" x1="50" y1="42" x2="189" y2="213" gradientUnits="userSpaceOnUse"><stop stop-color="#acf3bb"/><stop offset=".47" stop-color="#59cc8a"/><stop offset="1" stop-color="#26a373"/></linearGradient>
    <linearGradient id="verify-side" x1="59" y1="66" x2="198" y2="213" gradientUnits="userSpaceOnUse"><stop stop-color="#59cc8a"/><stop offset="1" stop-color="#147354"/></linearGradient>
    <linearGradient id="verify-top" x1="80" y1="35" x2="168" y2="150" gradientUnits="userSpaceOnUse"><stop stop-color="#acf3bb"/><stop offset="1" stop-color="#59cc8a"/></linearGradient>
    <radialGradient id="verify-glow" cx=".28" cy=".2" r=".8"><stop stop-color="white" stop-opacity=".52"/><stop offset=".55" stop-color="white" stop-opacity=".04"/><stop offset="1" stop-color="white" stop-opacity="0"/></radialGradient>
    <radialGradient id="verify-round" cx=".33" cy=".25" r=".76"><stop stop-color="#acf3bb"/><stop offset=".36" stop-color="#59cc8a"/><stop offset=".8" stop-color="#26a373"/><stop offset="1" stop-color="#147354"/></radialGradient>
    <linearGradient id="verify-white" x1="86" y1="85" x2="161" y2="174" gradientUnits="userSpaceOnUse"><stop stop-color="white"/><stop offset="1" stop-color="#e8f6ff"/></linearGradient>
    <filter id="verify-shadow" x="-35%" y="-35%" width="175%" height="180%"><feDropShadow dx="0" dy="5" stdDeviation="4" flood-color="#147354" flood-opacity=".13"/></filter>
  </defs>
    <defs><path id="verify-shield" d="M126 37Q135 35 143 42Q170 63 201 68V126Q201 180 141 218Q133 223 126 219Q61 185 58 129V74Q91 63 116 43Q121 38 126 37Z"/></defs>
    <g filter="url(#verify-shadow)">
      <use href="#verify-shield" transform="translate(7 5)" fill="url(#verify-side)"/>
      <use href="#verify-shield" fill="url(#verify-face)"/>
      <use href="#verify-shield" fill="url(#verify-glow)"/>
      <path d="M127 46Q99 68 67 80V126Q69 171 115 204" fill="none" stroke="#dcffe9" stroke-opacity=".44" stroke-width="3" stroke-linecap="round"/>
      <path d="M97 130L122 153L164 104" fill="none" stroke="#1a8965" stroke-opacity=".5" stroke-width="17" stroke-linecap="round" stroke-linejoin="round" transform="translate(2 4)"/>
      <path d="M96 126L121 149L163 100" fill="none" stroke="url(#verify-white)" stroke-width="16" stroke-linecap="round" stroke-linejoin="round"/>
    </g></svg>