<svg fill="currentColor" aria-hidden="true" data-fui-icon="" class="fui-Icon ___9ctc0p0_1xvj9ao f1w7gpdv fez10in f1dd5bof" width="24" height="24" viewBox="0 0 24 24" xmlns="http://www.w3.org/2000/svg"><path d="M20.95 3.05a3.6 3.6 0 0 0-5.06 0L3.94 15c-.4.4-.7.92-.82 1.48l-1.1 4.6a.75.75 0 0 0 .9.9l4.6-1.1A3 3 0 0 0 9 20.07L20.95 8.11a3.6 3.6 0 0 0 0-5.06m-4 1.06a2.08 2.08 0 1 1 2.94 2.94l-.89.89L16.06 5zM15 6.06 17.94 9l-10 10a1.6 1.6 0 0 1-.76.43l-3.42.8.82-3.4q.1-.45.42-.77z" fill="currentColor"></path></svg>
