<svg fill="currentColor" aria-hidden="true" data-fui-icon="" class="fui-Icon ___9ctc0p0_1xvj9ao f1w7gpdv fez10in f1dd5bof" width="1em" height="1em" viewBox="0 0 20 20" xmlns="http://www.w3.org/2000/svg"><path d="M6.5 10a.5.5 0 0 0 0 1h7a.5.5 0 0 0 0-1zm0 2a.5.5 0 0 0 0 1h7a.5.5 0 0 0 0-1zm0 2a.5.5 0 0 0 0 1h7a.5.5 0 0 0 0-1zM4 4c0-1.1.9-2 2-2h4.59q.62.01 1.06.44l3.91 3.91c.28.28.44.67.44 1.06V16a2 2 0 0 1-2 2H6a2 2 0 0 1-2-2zm2-1a1 1 0 0 0-1 1v12a1 1 0 0 0 1 1h8a1 1 0 0 0 1-1V8h-3.5A1.5 1.5 0 0 1 10 6.5V3zm5.5 4h3.3L11 3.2v3.3c0 .28.22.5.5.5" fill="currentColor"></path></svg>